<?xml version="1.0" encoding="utf-8"?>
<!-- Generator: Adobe Illustrator 23.0.6, SVG Export Plug-In . SVG Version: 6.00 Build 0)  -->
<svg version="1.1" id="Layer_1" xmlns="http://www.w3.org/2000/svg" xmlns:xlink="http://www.w3.org/1999/xlink" x="0px" y="0px"
	 viewBox="0 0 16 16" style="enable-background:new 0 0 16 16;" xml:space="preserve">
<style type="text/css">
	.st0{fill:#0064C8;}
	.st1{fill:#FFFFFF;}
</style>
<rect class="st0" width="16" height="16"/>
<g>
	<g>
		<path class="st1" d="M6.9,13L1.3,5.3l1.2-0.4l2.7,3.8c0.8,1,1.4,2,1.9,2.9l0,0c0-1,0-2.2,0.1-3.4l0.1-4.7L8.4,3l-0.3,9.7L6.9,13z"
			/>
	</g>
	<g>
		<path class="st1" d="M9.4,11.2c0.5,0.3,1.3,0.6,2.1,0.6c1.2,0,1.9-0.7,1.9-1.5S12.9,9,11.8,8.5C10.2,8,9.3,7.2,9.3,5.9
			c0-1.4,1.2-2.4,2.9-2.4c0.9,0,1.6,0.3,2,0.4l-0.3,0.9c-0.3-0.2-0.9-0.4-1.7-0.4c-1.3,0-1.7,0.8-1.7,1.3c0,0.8,0.6,1.3,1.8,1.8
			c1.5,0.6,2.4,1.3,2.4,2.7s-1,2.6-3.2,2.6c-0.8,0-1.8-0.3-2.4-0.6L9.4,11.2z"/>
	</g>
</g>
</svg>
