<?xml version="1.0" encoding="utf-8"?>
<!-- Generator: Adobe Illustrator 23.0.6, SVG Export Plug-In . SVG Version: 6.00 Build 0)  -->
<svg version="1.1" id="Layer_1" xmlns="http://www.w3.org/2000/svg" xmlns:xlink="http://www.w3.org/1999/xlink" x="0px" y="0px"
	 viewBox="0 0 512 512" style="enable-background:new 0 0 512 512;" xml:space="preserve">
<style type="text/css">
	.st0{display:none;fill:#3296FA;}
	.st1{fill:#FFFFFF;}
</style>
<rect class="st0" width="512" height="512"/>
<path class="st1" d="M429.7,146.8H82.3c-11,0-20-9-20-20v-35c0-11,9-20,20-20h347.4c11,0,20,9,20,20v35
	C449.7,137.8,440.7,146.8,429.7,146.8z"/>
<path class="st1" d="M429.7,440.3H82.3c-11,0-20-9-20-20v-35c0-11,9-20,20-20h347.4c11,0,20,9,20,20v35
	C449.7,431.3,440.7,440.3,429.7,440.3z"/>
<path class="st1" d="M429.7,293.5H82.3c-11,0-20-9-20-20v-35c0-11,9-20,20-20h347.4c11,0,20,9,20,20v35
	C449.7,284.5,440.7,293.5,429.7,293.5z"/>
</svg>
